<svg width="30" height="30" viewBox="0 0 30 30" fill="none" xmlns="http://www.w3.org/2000/svg">
<path d="M1 15C1 7.26801 7.26801 1 15 1C22.732 1 29 7.26801 29 15C29 22.732 22.732 29 15 29C7.26801 29 1 22.732 1 15Z" fill="#E1B168" stroke="#292E36" stroke-width="2"/>
<g clip-path="url(#clip0_9_7)">
<path d="M10.5212 19.5802C11.2225 19.2792 11.8346 18.8218 12.3576 18.2078C12.8807 17.5939 13.1956 16.9679 13.3026 16.3299C13.3621 15.9928 13.3918 15.7039 13.3918 15.4632C13.3918 15.1863 13.3621 14.9576 13.3026 14.777C12.744 15.3669 12.0367 15.6618 11.1809 15.6618C10.325 15.6618 9.62968 15.409 9.09478 14.9034C8.55989 14.3978 8.29244 13.6996 8.29244 12.8088C8.29244 11.9661 8.57772 11.28 9.14827 10.7503C9.70694 10.2206 10.4201 9.95581 11.2879 9.95581C12.4765 9.95581 13.3442 10.3892 13.891 11.2559C14.1406 11.6291 14.3368 12.0865 14.4794 12.6282C14.622 13.182 14.6933 13.7478 14.6933 14.3256C14.6933 15.5896 14.3724 16.7452 13.7305 17.7925C13.0887 18.8398 12.1318 19.6584 10.8599 20.2483L10.5212 19.5802ZM18.0454 19.5802C18.7467 19.2792 19.3588 18.8218 19.8818 18.2078C20.4048 17.5939 20.7198 16.9679 20.8268 16.3299C20.8862 15.9928 20.916 15.7039 20.916 15.4632C20.916 15.1863 20.8862 14.9576 20.8268 14.777C20.2681 15.3669 19.5609 15.6618 18.7051 15.6618C17.8492 15.6618 17.1539 15.409 16.619 14.9034C16.0841 14.3978 15.8166 13.6996 15.8166 12.8088C15.8166 11.9661 16.1019 11.28 16.6725 10.7503C17.2311 10.2206 17.9443 9.95581 18.812 9.95581C20.0007 9.95581 20.8684 10.3892 21.4152 11.2559C21.6648 11.6291 21.8609 12.0865 22.0036 12.6282C22.1462 13.182 22.2175 13.7478 22.2175 14.3256C22.2175 15.5896 21.8966 16.7452 21.2547 17.7925C20.6128 18.8398 19.656 19.6584 18.3841 20.2483L18.0454 19.5802Z" fill="#292E36"/>
</g>
<defs>
<clipPath id="clip0_9_7">
<rect width="15" height="12" fill="white" transform="translate(8 9)"/>
</clipPath>
</defs>
</svg>
